<svg xmlns="http://www.w3.org/2000/svg" viewBox="0 0 90.77 17.74"><defs><style>.cls-1{fill:#4767b2;opacity:0.8}.cls-2{font-size:10.28px;font-family:IowanOldStyleBT-Bold, IowanOldSt BT;font-weight:700;}.cls-2,.cls-5{fill:#231f20;}.cls-3{letter-spacing:-0.02em;}.cls-4{font-size:4px;}</style></defs><title>Asset 1</title><g id="Layer_2" data-name="Layer 2"><g id="Layer_1-2" data-name="Layer 1"><rect class="cls-1" width="90.77" height="17.74" rx="3.6" ry="3.6"/><text class="cls-2" transform="translate(19.65 10.15)">DOWNL<tspan class="cls-3" x="43.27" y="0">O</tspan><tspan x="51.7" y="0">AD</tspan><tspan class="cls-4"><tspan x="19.09" y="4.8">YOUR PULLEY</tspan></tspan></text><polygon class="cls-5" points="11.91 11.81 11.91 8.31 8.57 8.31 8.57 11.81 6.15 11.81 10.24 15.76 14.33 11.81 11.91 11.81"/><path class="cls-5" d="M15.72,5.82C14.73,1.2,11.06,1.2,9,3.14c-3.08-.33-3.7,1.14-3.63,2.68-3.78,1.36-1.81,5.44,0,5.36a23.28,23.28,0,0,0,2.42,0h.5V7.88h4v3.3h3C17,11.26,19.54,7.58,15.72,5.82Z"/></g></g></svg>
