<svg id="Layer_1" data-name="Layer 1" xmlns="http://www.w3.org/2000/svg" width="7in" height="0.55in" viewBox="0 0 503.97 39.6">
  <defs>
    <style>
      .cls-1 {
        fill: white;
      }
    </style>
  </defs>
  <title>Title</title>
  <path class="cls-1" d="M80.23,281.61v5H69.85v27.75H64.34V286.56H54v-5H80.23Z" transform="translate(-54.01 -278.21)"/>
  <path class="cls-1" d="M87.51,291.43v22.89H83.65V291.43h3.86Z" transform="translate(-54.01 -278.21)"/>
  <path class="cls-1" d="M98.11,291.43l7.55,15.21,7.52-15.21h4.55v22.89h-3.56l0-17.1-7.23,14.71h-2.52l-7.23-14.71v17.1H93.53V291.43h4.58Z" transform="translate(-54.01 -278.21)"/>
  <path class="cls-1" d="M127.64,291.43v22.89h-3.86V291.43h3.86Z" transform="translate(-54.01 -278.21)"/>
  <path class="cls-1" d="M137.45,291.43l12.26,16.45V291.43h3.79v22.89h-3.79l-12.2-16.42v16.42h-3.86V291.43h3.79Z" transform="translate(-54.01 -278.21)"/>
  <path class="cls-1" d="M175.22,303.07h3.37v8.44a15.52,15.52,0,0,1-8.89,3,11.67,11.67,0,0,1-12-11.61c0-6.54,5.33-11.54,12.26-11.54a13.74,13.74,0,0,1,8.8,3.2l-2.19,2.84a10,10,0,0,0-6.61-2.62A8.13,8.13,0,1,0,170,311a10.66,10.66,0,0,0,5.26-1.57v-6.38Z" transform="translate(-54.01 -278.21)"/>
  <path class="cls-1" d="M225.33,292.78c0,7.38-4.72,11.68-12.94,11.68h-7.52v9.86h-5.51V281.61h13C220.61,281.61,225.33,285.67,225.33,292.78Zm-5.28.14c0-4.3-2.85-6.35-7.9-6.35h-7.29V299.5h7.29C217.2,299.5,220.05,297.35,220.05,292.92Z" transform="translate(-54.01 -278.21)"/>
  <path class="cls-1" d="M239.05,311c3.73,0,6-2.29,6-6.18V291.43H249v13.41c0,6-3.76,9.65-9.94,9.65s-10-3.66-10-9.65V291.43h3.86v13.41C232.9,308.69,235.29,311,239.05,311Z" transform="translate(-54.01 -278.21)"/>
  <path class="cls-1" d="M258.35,291.43v19.39h9.91v3.5H254.49V291.43h3.86Z" transform="translate(-54.01 -278.21)"/>
  <path class="cls-1" d="M275.81,291.43v19.39h9.91v3.5H272V291.43h3.86Z" transform="translate(-54.01 -278.21)"/>
  <path class="cls-1" d="M305.76,291.43v3.47H293.27v6.21h11.18v3.43H293.27v6.31h12.88v3.47H289.42V291.43h16.35Z" transform="translate(-54.01 -278.21)"/>
  <path class="cls-1" d="M320.25,306.7v7.62h-3.83v-7.49l-8.54-15.4h3.89l6.54,11.15,6.41-11.15h3.92Z" transform="translate(-54.01 -278.21)"/>
  <path class="cls-1" d="M397.06,291.43v3.47H384.56v6.21h11.18v3.43H384.56v6.31h12.88v3.47H380.71V291.43h16.35Z" transform="translate(-54.01 -278.21)"/>
  <path class="cls-1" d="M406,291.43l12.26,16.45V291.43H422v22.89h-3.79L406,297.9v16.42h-3.86V291.43H406Z" transform="translate(-54.01 -278.21)"/>
  <path class="cls-1" d="M444.41,291.43v3.47H431.92v6.21H443.1v3.43H431.92v6.31H444.8v3.47H428.06V291.43h16.35Z" transform="translate(-54.01 -278.21)"/>
  <path class="cls-1" d="M464,314.32l-4.19-6.93c-0.33,0-.69,0-1,0h-5.43v6.9h-3.86V291.43h9.29c5.85,0,9.22,2.84,9.22,7.81,0,3.66-1.7,6.25-4.74,7.42l5.13,7.65H464Zm-5.23-10.37c3.53,0,5.56-1.5,5.56-4.61s-2-4.45-5.56-4.45h-5.43v9.06h5.43Z" transform="translate(-54.01 -278.21)"/>
  <path class="cls-1" d="M487.94,309.15H476.39l-2.19,5.17h-4l10.1-22.89h4l10,22.89h-4.12Zm-1.47-3.43-4.32-10.17-4.32,10.17h8.63Z" transform="translate(-54.01 -278.21)"/>
  <path class="cls-1" d="M510.66,291.43v3.47h-7.26v19.42h-3.86V294.89h-7.23v-3.47h18.34Z" transform="translate(-54.01 -278.21)"/>
  <path class="cls-1" d="M535,302.87c0,6.54-5.3,11.61-12.13,11.61s-12.13-5.07-12.13-11.61,5.3-11.54,12.13-11.54S535,296.33,535,302.87Zm-20.34,0a8.21,8.21,0,0,0,8.24,8.14A8.11,8.11,0,1,0,514.62,302.87Z" transform="translate(-54.01 -278.21)"/>
  <path class="cls-1" d="M553.6,314.32l-4.19-6.93c-0.33,0-.69,0-1,0h-5.43v6.9h-3.86V291.43h9.29c5.85,0,9.22,2.84,9.22,7.81,0,3.66-1.7,6.25-4.74,7.42l5.13,7.65H553.6Zm-5.23-10.37c3.53,0,5.56-1.5,5.56-4.61s-2-4.45-5.56-4.45h-5.43v9.06h5.43Z" transform="translate(-54.01 -278.21)"/>
  <path class="cls-1" d="M370.33,308.18a14.47,14.47,0,0,1-7.56,2.44c-6.71,0-12-5.54-12-12.66s5.26-12.61,12-12.61a13.71,13.71,0,0,1,9.48,4.07l3.15-4.42a17.11,17.11,0,0,0-1.5-1.24,0.94,0.94,0,0,1-.15-0.73l0.22-1.11a0.72,0.72,0,0,0-.35-0.78l-1-.57a0.72,0.72,0,0,0-.85.08l-0.85.74a0.93,0.93,0,0,1-.74.23c-0.4-.18-0.81-0.34-1.23-0.48a0.94,0.94,0,0,1-.36-0.64l-0.14-1.12a0.72,0.72,0,0,0-.58-0.63l-1.11-.24a0.72,0.72,0,0,0-.78.34l-0.58,1a0.94,0.94,0,0,1-.41.37q-0.88-.11-1.77-0.14a1,1,0,0,1-.3-0.37l-0.48-1a0.72,0.72,0,0,0-.74-0.42l-1.13.12a0.72,0.72,0,0,0-.64.56l-0.26,1.1a1,1,0,0,1-.14.31,17.74,17.74,0,0,0-2.08.49,1,1,0,0,1-.19-0.16l-0.77-.83a0.72,0.72,0,0,0-.84-0.17l-1,.46a0.72,0.72,0,0,0-.44.73l0.1,1.13a1,1,0,0,1,0,.17,17,17,0,0,0-1.93,1.24l-0.16-.06-1-.55a0.72,0.72,0,0,0-.85.09l-0.85.76a0.72,0.72,0,0,0-.19.83l0.44,1a1,1,0,0,1,0,.17,17.24,17.24,0,0,0-1.41,1.77h-0.21L347,287.2a0.72,0.72,0,0,0-.78.35l-0.57,1a0.72,0.72,0,0,0,.08.85l0.74,0.85a1,1,0,0,1,.15.24,18,18,0,0,0-.73,2,1,1,0,0,1-.32.1l-1.12.14a0.72,0.72,0,0,0-.63.58l-0.24,1.11a0.72,0.72,0,0,0,.34.78l1,0.58a1,1,0,0,1,.3.3q-0.09.93-.09,1.9h0a1,1,0,0,1-.35.28l-1,.48a0.72,0.72,0,0,0-.42.74l0.12,1.13a0.72,0.72,0,0,0,.56.64l1.1,0.26a1,1,0,0,1,.36.18,18.86,18.86,0,0,0,.48,1.93,1,1,0,0,1-.21.3l-0.83.77a0.72,0.72,0,0,0-.17.84l0.46,1a0.72,0.72,0,0,0,.73.44l1.13-.1a1,1,0,0,1,.25,0,17.7,17.7,0,0,0,1.18,1.89,1,1,0,0,1-.08.19l-0.55,1a0.72,0.72,0,0,0,.09.85l0.76,0.85a0.72,0.72,0,0,0,.83.19l1-.44,0.14,0a16.94,16.94,0,0,0,1.8,1.5,1,1,0,0,1,0,.11l-0.22,1.11a0.72,0.72,0,0,0,.35.78l1,0.57a0.72,0.72,0,0,0,.85-0.08l0.85-.74,0.12-.08a16.75,16.75,0,0,0,2.15.77,1,1,0,0,1,.05.21l0.14,1.12a0.72,0.72,0,0,0,.58.63l1.11,0.24a0.72,0.72,0,0,0,.78-0.34l0.58-1a1,1,0,0,1,.26-0.28c0.42,0,.84.06,1.26,0.06,0.21,0,.43,0,0.65,0a1,1,0,0,1,.32.38l0.48,1a0.72,0.72,0,0,0,.74.42l1.13-.12a0.72,0.72,0,0,0,.64-0.56l0.26-1.1a0.93,0.93,0,0,1,.62-0.68l0.63-.18,0.21-.05a0.94,0.94,0,0,1,.95.27l0.77,0.83a0.72,0.72,0,0,0,.84.17l1-.46a0.72,0.72,0,0,0,.44-0.73l-0.1-1.13a0.94,0.94,0,0,1,.24-0.72,19.11,19.11,0,0,0,2.92-2V298.26h-4.84v9.92Z" transform="translate(-54.01 -278.21)"/>
</svg>
